<svg xmlns="http://www.w3.org/2000/svg" width="19.394" height="19.394" viewBox="0 0 19.394 19.394">
  <g id="About" transform="translate(-5 -5)">
    <path id="Path_80971" data-name="Path 80971" d="M24.394,8.81A3.81,3.81,0,0,0,20.584,5H8.809A3.81,3.81,0,0,0,5,8.81V20.584a3.81,3.81,0,0,0,3.809,3.81H20.584a3.81,3.81,0,0,0,3.809-3.81ZM22.631,20.584a2.046,2.046,0,0,1-2.046,2.047H8.809a2.046,2.046,0,0,1-2.046-2.047V8.81A2.046,2.046,0,0,1,8.809,6.763H20.584A2.046,2.046,0,0,1,22.631,8.81Zm-5.234-.6a.881.881,0,0,1-.882.882H12.989a.882.882,0,1,1,0-1.763h.826V13.815h-.826a.882.882,0,1,1,0-1.763h2.59V19.1h.937A.881.881,0,0,1,17.4,19.986ZM13.375,9.9A1.322,1.322,0,1,1,14.7,11.226,1.322,1.322,0,0,1,13.375,9.9Z" fill="#f6323e"/>
  </g>
</svg>
