<svg xmlns="http://www.w3.org/2000/svg" width="19.704" height="19.704" viewBox="0 0 19.704 19.704">
  <path id="Announcements" d="M12.837,15.793v4.926a.985.985,0,0,1-.985.985H8.9L5.941,15.793a1.97,1.97,0,0,1-1.97-1.97A1.97,1.97,0,0,1,2,11.852V9.882a1.976,1.976,0,0,1,1.97-1.97,1.976,1.976,0,0,1,1.97-1.97h7.478L17.359,2h2.374A1.97,1.97,0,0,1,21.7,3.97V17.763a1.97,1.97,0,0,1-1.97,1.97H17.359l-3.941-3.941Zm0-1.97h1.389l3.941,3.941h1.566V3.97H18.167L14.226,7.911H12.837Zm-1.97,0V7.911H5.941v1.97H3.97v1.97h1.97v1.97Zm0,1.97H8.148l1.97,3.941h.749Z" transform="translate(-2 -2)" fill="#f6323e"/>
</svg>
