<svg xmlns="http://www.w3.org/2000/svg" xmlns:xlink="http://www.w3.org/1999/xlink" width="50" height="48.78" viewBox="0 0 50 48.78">
  <defs>
    <clipPath id="clip-path">
      <rect id="Rectangle_2274" data-name="Rectangle 2274" width="38.78" height="38.78" fill="#f6323e" stroke="#707070" stroke-width="1"/>
    </clipPath>
  </defs>
  <g id="bill-payment" transform="translate(-949 -220)">
    <rect id="Rectangle_2275" data-name="Rectangle 2275" width="49" height="48.78" transform="translate(949 220)" fill="none"/>
    <rect id="Rectangle_2273" data-name="Rectangle 2273" width="49" height="48.78" transform="translate(950 220)" fill="none"/>
    <g id="Top_Up_" data-name="Top Up /" transform="translate(955 225)" clip-path="url(#clip-path)">
      <g id="mobile__pay_bill" transform="translate(0 1.513)">
        <path id="Path_1969" data-name="Path 1969" d="M34.107,32.933v-.613l-.616.613Z" transform="translate(4.893 2.822)" fill="#f6323e"/>
        <path id="Path_1970" data-name="Path 1970" d="M6.592,27.663V7.751H40.315V8q0,6.66.006,13.32a.462.462,0,0,0,.124.3c.82.8,1.648,1.594,2.473,2.39,0-.025.005-.051.005-.077q0-8.056,0-16.112a2.593,2.593,0,0,0-2.286-2.656.578.578,0,0,1-.091-.031H6.266c-.117.03-.236.054-.351.09A2.6,2.6,0,0,0,4,7.318a.72.72,0,0,1-.038.1V30.575c.03.124.058.25.091.374a2.615,2.615,0,0,0,2.4,1.922c.11.005.221,0,.331,0H21.2V27.663Z" transform="translate(-3.965 -5.135)" fill="#f6323e"/>
        <path id="Path_1971" data-name="Path 1971" d="M17.226,22.378v.239h0C17.226,22.53,17.226,22.454,17.226,22.378Z" transform="translate(0.014 -0.088)" fill="#f6323e"/>
        <path id="Path_1972" data-name="Path 1972" d="M38.794,25.847a5.133,5.133,0,0,0-1.378-2.389q-2.279-2.272-4.567-4.534a.451.451,0,0,1-.145-.354q.006-3.49,0-6.98A2.219,2.219,0,0,0,30.866,9.36a2.435,2.435,0,0,0-.465-.032q-5.44,0-10.881,0a2.21,2.21,0,0,0-2.293,2.289q0,7.29,0,14.581c0,.076,0,.152,0,.239h0v5.212h8.888a7.044,7.044,0,0,0,3.052,5.095l.811-1.176a13.39,13.39,0,0,1-1.127-1.116,5.338,5.338,0,0,1-.914-5.425.681.681,0,0,0-.193-.863c-1.37-1.325-2.713-2.676-4.063-4.022a1.672,1.672,0,0,1-.458-1.777,1.619,1.619,0,0,1,1.362-1.178,1.718,1.718,0,0,1,1.57.493l3.792,3.769,3.945,3.919c.036.036.076.068.111.1l1.076-1.08a.788.788,0,0,1-.158-.1Q33.87,27.251,32.827,26.2a.4.4,0,0,1-.116-.245c-.007-1.641-.005-3.283,0-4.924,0-.036,0-.072.008-.138.068.062.115.1.159.145,1.122,1.114,2.238,2.235,3.368,3.341A4.053,4.053,0,0,1,37.5,27.408q0,5.929,0,11.857h0v.4h.87l.616-.613V26.789C38.923,26.475,38.874,26.157,38.794,25.847ZM24.943,19.624c-.284.045-.576.067-.855.138a3.212,3.212,0,0,0-1.519,5.37c.749.763,1.516,1.507,2.27,2.265a.374.374,0,0,1,.115.226c.008.808.005,1.616,0,2.423a.831.831,0,0,1-.013.1.652.652,0,0,1-.078.011q-2.7,0-5.4,0a.744.744,0,0,1-.752-.716c0-.058,0-.116,0-.174q0-8.79-.006-17.581a.825.825,0,0,1,.883-.889c1.7.02,3.4.007,5.107.007h.247Q24.943,15.23,24.943,19.624ZM31.22,13.4v11.16l-.054.032c-.1-.107-.193-.218-.3-.321-.684-.682-1.372-1.36-2.051-2.046a.421.421,0,0,1-.118-.264q-.009-5.5,0-10.993v-.148c.077,0,.14-.011.2-.011h1.462a.77.77,0,0,1,.859.865Q31.22,12.535,31.22,13.4Z" transform="translate(0.014 -3.908)" fill="#f6323e"/>
        <g id="Group_2699" data-name="Group 2699" transform="translate(10.764 29.217)">
          <path id="Path_1973" data-name="Path 1973" d="M24.7,30.1q-5.333,0-10.665,0a1.735,1.735,0,0,0-.346,3.445.124.124,0,0,1,.089.041H27.267c-.579-.93-1.615-2.448-2.333-3.487Z" transform="translate(-12.244 -27.046)" fill="#f6323e"/>
          <path id="Path_1974" data-name="Path 1974" d="M25.4,33.919a3.16,3.16,0,0,0-.126-.482l-.006-.021c-.022-.064-.047-.127-.073-.19-.009-.023-.018-.046-.028-.069-.025-.058-.051-.116-.078-.173-.013-.027-.026-.055-.039-.082-.026-.054-.054-.109-.082-.163l-.048-.091-.083-.153-.058-.1c-.069-.122-.139-.244-.208-.366a14.447,14.447,0,0,1-1.2-2.405,6.067,6.067,0,0,1-.336-1.761c0-.038-.006-.075-.011-.122H21.518a7.452,7.452,0,0,0,.674,3.051h-.039c.717,1.038,1.754,2.556,2.333,3.487h.919v-.356Z" transform="translate(-9.462 -27.737)" fill="#f6323e"/>
        </g>
      </g>
    </g>
  </g>
</svg>
