<svg xmlns="http://www.w3.org/2000/svg" width="22.068" height="20" viewBox="0 0 22.068 20">
  <g id="Disclaimer" transform="translate(-1.052 -1.547)">
    <g id="Group_20342" data-name="Group 20342" transform="translate(1.052 1.547)">
      <path id="Path_80811" data-name="Path 80811" d="M119,235.566a3.081,3.081,0,0,0-2.7,1.538l-7.928,13.772a3.157,3.157,0,0,0,2.713,4.69h15.827a3.157,3.157,0,0,0,2.713-4.69L121.7,237.1a3.081,3.081,0,0,0-2.7-1.538Zm0,1.6a1.454,1.454,0,0,1,1.265.761l7.923,13.773a1.451,1.451,0,0,1-1.277,2.213H111.085a1.451,1.451,0,0,1-1.277-2.213l7.923-13.773a1.46,1.46,0,0,1,1.269-.761Z" transform="translate(-107.965 -235.566)" fill="#f6323e"/>
      <path id="Path_80812" data-name="Path 80812" d="M115.258,239.914a1.313,1.313,0,1,1-1.313-1.311A1.312,1.312,0,0,1,115.258,239.914Z" transform="translate(-102.912 -232.278)" fill="#f6323e"/>
      <path id="Path_80813" data-name="Path 80813" d="M114.34,242.2a.709.709,0,1,1-.709-.707A.708.708,0,0,1,114.34,242.2Z" transform="translate(-102.598 -229.153)" fill="#f6323e"/>
      <path id="Path_80814" data-name="Path 80814" d="M112.632,239.233l.6,5.408h1.417l.6-5.408Z" transform="translate(-102.912 -231.596)" fill="#f6323e"/>
      <path id="Path_80815" data-name="Path 80815" d="M114.672,243.423a.927.927,0,1,1-.928-.926.927.927,0,0,1,.928.926Z" transform="translate(-102.712 -228.062)" fill="#f6323e"/>
    </g>
  </g>
</svg>
