<svg xmlns="http://www.w3.org/2000/svg" width="18" height="18" viewBox="0 0 18 18">
  <g id="FAQ" transform="translate(-3 -3)">
    <g id="Group_19751" data-name="Group 19751">
      <path id="Path_80619" data-name="Path 80619" d="M12,3a8.963,8.963,0,0,0-9,9,9.318,9.318,0,0,0,1.6,5.1L3.2,19.5a.908.908,0,0,0,0,1A.891.891,0,0,0,4,21h8A9,9,0,0,0,12,3Zm0,16H5.8l.9-1.5a.9.9,0,0,0-.1-1.1A6.97,6.97,0,1,1,12,19Z" fill="#f6323e"/>
      <path id="Path_80620" data-name="Path 80620" d="M12.1,7.3H12A2.813,2.813,0,0,0,9.6,8.6.9.9,0,0,0,9.8,10a.984.984,0,0,0,1.4-.3.909.909,0,0,1,.8-.4h.1a.9.9,0,0,1,.9.9,1.013,1.013,0,0,1-.6.9l-.7.2a.961.961,0,0,0-.7.9V13a.945.945,0,0,0,1,1,.987.987,0,0,0,1-.9,2.913,2.913,0,0,0,2-2.8A2.989,2.989,0,0,0,12.1,7.3Z" fill="#f6323e"/>
      <circle id="Ellipse_1765" data-name="Ellipse 1765" cx="1" cy="1" r="1" transform="translate(11 15)" fill="#f6323e"/>
    </g>
  </g>
</svg>
