<svg xmlns="http://www.w3.org/2000/svg" width="20.465" height="17.478" viewBox="0 0 20.465 17.478">
  <path id="feedback" d="M22.715,6.3a2.046,2.046,0,0,0-3.49-1.444l-.975.967a1.987,1.987,0,0,0-.558-.082H4.3A2.046,2.046,0,0,0,2.25,7.787v9.674A2.046,2.046,0,0,0,4.3,19.508h.26l1.116,1.95a.558.558,0,0,0,.967,0l1.116-1.95h9.935a2.046,2.046,0,0,0,2.046-2.046V10.124l2.374-2.381a2.024,2.024,0,0,0,.6-1.444ZM18.622,17.461a.93.93,0,0,1-.93.93H7.437a.543.543,0,0,0-.484.283l-.8,1.384-.8-1.384a.543.543,0,0,0-.484-.283H4.3a.93.93,0,0,1-.93-.93V7.787a.93.93,0,0,1,.93-.93H17.215L14.484,9.588a.558.558,0,0,0-.164.394v2.106a.566.566,0,0,0,.558.558h2.106a.558.558,0,0,0,.394-.164l1.243-1.243Zm2.7-10.508-4.569,4.554H15.459V10.213l4.577-4.569a.926.926,0,1,1,1.31,1.31Z" transform="translate(-2.25 -4.259)" fill="#f6323e"/>
</svg>
