<svg xmlns="http://www.w3.org/2000/svg" width="21.538" height="20" viewBox="0 0 21.538 20">
  <g id="language" transform="translate(-32 -48)">
    <path id="Path_80625" data-name="Path 80625" d="M266.679,213.13l-4.327-10.481a1.058,1.058,0,0,0-1.955,0L256.07,213.13a1.058,1.058,0,0,0,1.955.807l.881-2.134h4.936l.881,2.134a1.057,1.057,0,1,0,1.955-.807Zm-6.9-3.442,1.595-3.863,1.595,3.863Z" transform="translate(-213.221 -146.592)" fill="#f6323e"/>
    <path id="Path_80626" data-name="Path 80626" d="M43.338,62.179A1.058,1.058,0,0,0,43.1,60.7a13.754,13.754,0,0,1-1.754-1.67,24.81,24.81,0,0,0,3.426-6.9h1.551a1.058,1.058,0,1,0,0-2.115H40.75v-.962a1.058,1.058,0,1,0-2.115,0v.962H33.058a1.058,1.058,0,0,0,0,2.115h9.483a22.951,22.951,0,0,1-2.586,5.21,18.155,18.155,0,0,1-2.075-3.311,1.058,1.058,0,1,0-1.951.817,20.2,20.2,0,0,0,2.541,4.035l.132.169a19.666,19.666,0,0,1-4.512,3.882A1.058,1.058,0,1,0,35.1,64.793a20.712,20.712,0,0,0,4.886-4.115,14.509,14.509,0,0,0,1.872,1.736,1.058,1.058,0,0,0,1.478-.236Z" fill="#f6323e"/>
  </g>
</svg>
