<svg xmlns="http://www.w3.org/2000/svg" xmlns:xlink="http://www.w3.org/1999/xlink" width="40" height="40" viewBox="0 0 40 40">
  <defs>
    <clipPath id="clip-path">
      <rect id="Rectangle_2312" data-name="Rectangle 2312" width="40" height="40" fill="#f6323e" stroke="#707070" stroke-width="1"/>
    </clipPath>
  </defs>
  <g id="leakage" transform="translate(-510 -281)">
    <g id="Mask_Group_68" data-name="Mask Group 68" transform="translate(510 281)" clip-path="url(#clip-path)">
      <g id="mobile__water_leakage" transform="translate(0 0)">
        <path id="Path_2053" data-name="Path 2053" d="M44.418,17.407a1.172,1.172,0,0,0-1.172,1.172v.965H40.77a3.321,3.321,0,0,0-6.2,0H31.4V16.232a3.32,3.32,0,0,0,0-6.2V7.934h.965a1.172,1.172,0,1,0,0-2.344H18.344a1.172,1.172,0,1,0,0,2.344h.965v2.093a3.32,3.32,0,0,0,0,6.2v3.311H16.154a3.32,3.32,0,0,0-6.2,0H7.935v-.7a1.172,1.172,0,0,0-2.344,0V32.865a1.172,1.172,0,0,0,2.344,0V31.638H9.949a3.321,3.321,0,0,0,6.2,0h5.779a1.42,1.42,0,0,0,1.3-.853l1.089-2.5,4.892,3.128a1.416,1.416,0,0,0,.764.223h4.586a3.321,3.321,0,0,0,6.2,0h2.476V32.6a1.172,1.172,0,0,0,2.344,0V18.578A1.172,1.172,0,0,0,44.418,17.407ZM9.731,29.294h-1.8V21.887h1.8Zm4.3,1.16a.977.977,0,0,1-1.953,0V20.727a.977.977,0,0,1,1.953,0ZM21.653,7.934H29.06V9.81H21.653V7.934Zm-1.16,4.219H30.22a.977.977,0,1,1,0,1.953H20.492a.977.977,0,1,1,0-1.953ZM34.348,29.294h-4.1l-5.576-3.565a1.42,1.42,0,0,0-2.067.629l-1.279,2.936H16.372V21.887h3.717a1.565,1.565,0,0,0,1.564-1.564V16.45H29.06v3.873a1.565,1.565,0,0,0,1.564,1.564h3.724v7.407Zm4.3,1.16a.977.977,0,0,1-1.953,0V20.727a.977.977,0,0,1,1.953,0Zm4.6-1.16H40.988V21.887h2.258Z" transform="translate(-5.591 -5.591)" fill="#f6323e"/>
        <path id="Path_2054" data-name="Path 2054" d="M21.726,26.731a1.82,1.82,0,0,0-1.516.811,35.415,35.415,0,0,0-2.058,3.45,7.128,7.128,0,0,0-.966,3,4.54,4.54,0,1,0,9.079,0c0-1.276-1.017-3.447-3.024-6.452A1.818,1.818,0,0,0,21.726,26.731Zm0,9.468a2.2,2.2,0,0,1-2.2-2.2,5.172,5.172,0,0,1,.714-1.943c.443-.876,1-1.794,1.482-2.546,1.513,2.355,2.2,3.936,2.2,4.489A2.2,2.2,0,0,1,21.725,36.2Z" transform="translate(-1.725 1.456)" fill="#f6323e"/>
      </g>
    </g>
  </g>
</svg>
