<svg xmlns="http://www.w3.org/2000/svg" width="19.409" height="19.409" viewBox="0 0 19.409 19.409">
  <g id="logout" transform="translate(0)">
    <path id="Path_80623" data-name="Path 80623" d="M4.141,30.066h9.2a1.213,1.213,0,0,0,0-2.426h-9.2L5.71,26.071a1.213,1.213,0,1,0-1.715-1.715L.355,27.995a1.213,1.213,0,0,0,0,1.715l3.639,3.639A1.213,1.213,0,0,0,5.71,31.634Z" transform="translate(0 -19.148)" fill="#fff"/>
    <path id="Path_80624" data-name="Path 80624" d="M46.917,0h-9.7A1.212,1.212,0,0,0,36,1.213V3.639a1.213,1.213,0,0,0,2.426,0V2.426H45.7V16.982H38.426V15.769a1.213,1.213,0,1,0-2.426,0V18.2a1.212,1.212,0,0,0,1.213,1.213h9.7A1.212,1.212,0,0,0,48.13,18.2V1.213A1.212,1.212,0,0,0,46.917,0Z" transform="translate(-28.722 0)" fill="#fff"/>
  </g>
</svg>
