<svg xmlns="http://www.w3.org/2000/svg" width="18.671" height="20.239" viewBox="0 0 18.671 20.239">
  <g id="privacy-policy" transform="translate(-2 -1.234)">
    <g id="Layer_2" data-name="Layer 2" transform="translate(2.25 1.539)">
      <path id="Path_80973" data-name="Path 80973" d="M8.9,20.289l1.77.786a1.635,1.635,0,0,0,1.325,0l1.77-.787a11.213,11.213,0,0,0,6.653-10.237V6.5a1.621,1.621,0,0,0-1.344-1.6,15.059,15.059,0,0,1-2.832-.782,15.106,15.106,0,0,1-3.912-2.226h0a1.611,1.611,0,0,0-2,0A15.116,15.116,0,0,1,6.425,4.112a15.078,15.078,0,0,1-2.832.782A1.621,1.621,0,0,0,2.25,6.5v3.556A11.213,11.213,0,0,0,8.9,20.289ZM3.648,6.5a.224.224,0,0,1,.185-.226,16.489,16.489,0,0,0,3.094-.854A16.48,16.48,0,0,0,11.2,2.985a.214.214,0,0,1,.27,0,16.469,16.469,0,0,0,4.273,2.432,16.469,16.469,0,0,0,3.095.855.224.224,0,0,1,.185.226v3.556a9.813,9.813,0,0,1-5.823,8.96L11.43,19.8a.231.231,0,0,1-.189,0l-1.77-.787a9.813,9.813,0,0,1-5.823-8.96Z" transform="translate(-2.25 -1.539)" fill="#f6323e" stroke="#f6323e" stroke-width="0.5"/>
      <path id="Path_80974" data-name="Path 80974" d="M10.842,14.222a.7.7,0,0,0,.9-.023l4.193-3.727a.7.7,0,1,0-.928-1.045l-3.753,3.336-1.869-1.5a.7.7,0,1,0-.874,1.091Z" transform="translate(-2.659 -2.065)" fill="#f6323e" stroke="#f6323e" stroke-width="0.5"/>
    </g>
  </g>
</svg>
