<svg xmlns="http://www.w3.org/2000/svg" width="23.996" height="18.146" viewBox="0 0 23.996 18.146">
  <path id="Saved_Cards" data-name="Saved Cards" d="M23.434,8.879H21.18l-.646-3.658A1.572,1.572,0,0,0,18.723,3.95L2.294,6.848A1.565,1.565,0,0,0,1.026,8.66l1.752,9.934A1.559,1.559,0,0,0,4.59,19.864l.6-.106v.751a1.565,1.565,0,0,0,1.563,1.563H23.434A1.566,1.566,0,0,0,25,20.51V10.442A1.566,1.566,0,0,0,23.434,8.879Zm.064,1.563v1.471H6.694l.058-1.534ZM4.255,18.334,2.786,10.006,2.555,8.324l16.5-2.844.6,3.4H6.752a1.565,1.565,0,0,0-1.563,1.563v7.767Zm19.179,2.239L6.688,20.51V14.568H23.5V20.51A.064.064,0,0,1,23.434,20.573Z" transform="translate(-1.002 -3.927)" fill="#f6323e"/>
</svg>
