<svg xmlns="http://www.w3.org/2000/svg" width="18" height="19.409" viewBox="0 0 18 19.409">
  <g id="settings" transform="translate(-16.532 -10)">
    <path id="Path_80621" data-name="Path 80621" d="M69.454,65a3.75,3.75,0,1,0,2.676,1.1A3.774,3.774,0,0,0,69.454,65Zm0,5.391a1.617,1.617,0,1,1,1.617-1.617,1.588,1.588,0,0,1-1.617,1.617Z" transform="translate(-43.849 -49.069)" fill="#f6323e"/>
    <path id="Path_80622" data-name="Path 80622" d="M33.045,20.567a.711.711,0,0,1,0-1.24,2.884,2.884,0,0,0,1.024-3.936l-.377-.647A2.834,2.834,0,0,0,29.81,13.72a.642.642,0,0,1-.97-.593v-.162A2.957,2.957,0,0,0,25.875,10h-.539a2.991,2.991,0,0,0-2.965,2.965v.108a.758.758,0,0,1-1.132.647,2.917,2.917,0,0,0-3.99,1.078l-.323.593a2.9,2.9,0,0,0,1.024,3.936.711.711,0,0,1,0,1.24A2.884,2.884,0,0,0,16.925,24.5l.377.593a2.917,2.917,0,0,0,3.99,1.078l.162-.108a.635.635,0,0,1,.97.539,2.784,2.784,0,0,0,2.8,2.8h.917a2.761,2.761,0,0,0,2.75-2.75.612.612,0,0,1,.917-.539l.108.054A2.834,2.834,0,0,0,33.8,25.149l.377-.647A2.919,2.919,0,0,0,33.045,20.567Zm-1.078,1.887a.774.774,0,0,1,.27.97l-.377.647a.691.691,0,0,1-.917.27l-.108-.054a2.764,2.764,0,0,0-4.151,2.372.6.6,0,0,1-.593.593h-.917a.623.623,0,0,1-.647-.647,2.8,2.8,0,0,0-4.205-2.426l-.162.108a.734.734,0,0,1-1.024-.27l-.323-.593a.719.719,0,0,1,.27-.97,2.881,2.881,0,0,0,0-4.96.774.774,0,0,1-.27-.97l.323-.647a.724.724,0,0,1,1.024-.27,2.906,2.906,0,0,0,4.367-2.534v-.108a.829.829,0,0,1,.809-.809h.539a.829.829,0,0,1,.809.809v.162a2.864,2.864,0,0,0,4.259,2.48.691.691,0,0,1,.917.27l.377.647a.719.719,0,0,1-.27.97A2.88,2.88,0,0,0,31.967,22.454Z" fill="#f6323e"/>
  </g>
</svg>
