<svg xmlns="http://www.w3.org/2000/svg" width="21.457" height="21.457" viewBox="0 0 21.457 21.457">
  <g id="Transaction_History" data-name="Transaction History" transform="translate(-3.5 -4.5)">
    <path id="Path_80816" data-name="Path 80816" d="M17.113,16a.613.613,0,0,1,.613.613v1.839h1.839a.613.613,0,1,1,0,1.226H17.113a.613.613,0,0,1-.613-.613V16.613A.613.613,0,0,1,17.113,16Z" transform="translate(2.939 2.6)" fill="#f6323e"/>
    <path id="Path_80817" data-name="Path 80817" d="M8.613,8a.613.613,0,0,0,0,1.226H15.97A.613.613,0,1,0,15.97,8Z" transform="translate(1.017 0.791)" fill="#f6323e"/>
    <path id="Path_80818" data-name="Path 80818" d="M8,10.613A.613.613,0,0,1,8.613,10H15.97a.613.613,0,1,1,0,1.226H8.613A.613.613,0,0,1,8,10.613Z" transform="translate(1.017 1.243)" fill="#f6323e"/>
    <path id="Path_80819" data-name="Path 80819" d="M8.613,12a.613.613,0,1,0,0,1.226h4.9a.613.613,0,1,0,0-1.226Z" transform="translate(1.017 1.696)" fill="#f6323e"/>
    <path id="Path_80820" data-name="Path 80820" d="M7.43,22.856a1.84,1.84,0,0,1-1.478-1.8V9.4H4.726A1.226,1.226,0,0,1,3.5,8.178V6.339A1.837,1.837,0,0,1,5.339,4.5H18.213a1.839,1.839,0,0,1,1.839,1.839v9.809A4.9,4.9,0,1,1,15.5,22.891H7.791A1.845,1.845,0,0,1,7.43,22.856Zm9.032-.867.179.443a3.679,3.679,0,1,0,3.411-5.057h-.471l-.45.116a3.689,3.689,0,0,0-2.491,2.183l-.179.443-.059.475a3.74,3.74,0,0,0,0,.923ZM15.5,19.213A4.915,4.915,0,0,1,18.826,16.3V6.339a.613.613,0,0,0-.613-.613H7.178V21.052a.612.612,0,0,0,.613.613h.234l.718-1.436a1.839,1.839,0,0,1,1.645-1.017Zm-.319,2.452a4.979,4.979,0,0,1,0-1.226h-4.8a.613.613,0,0,0-.548.339l-.444.887ZM5.339,5.726a.613.613,0,0,0-.613.613V8.178H5.952V5.726Z" transform="translate(0)" fill="#f6323e" fill-rule="evenodd"/>
  </g>
</svg>
